<svg xmlns="http://www.w3.org/2000/svg" version="1.1" xmlns:xlink="http://www.w3.org/1999/xlink" xmlns:svgjs="http://svgjs.dev/svgjs" width="1000" height="1000" viewBox="0 0 1000 1000"><rect width="1000" height="1000" fill="#ffffff"></rect><g transform="matrix(0.7,0,0,0.7,150.59511329797868,114.3003207702123)"><svg viewBox="0 0 254 280" data-background-color="#ffffff" preserveAspectRatio="xMidYMid meet" height="1102" width="1000" xmlns="http://www.w3.org/2000/svg" xmlns:xlink="http://www.w3.org/1999/xlink"><g id="tight-bounds" transform="matrix(1,0,0,1,-0.21594111098085023,0.00011600037819903264)"><svg viewBox="0 0 254.43188222196173 280" height="280" width="254.43188222196173"><g><svg viewBox="0 0 278.2696 306.23319420334263" height="280" width="254.43188222196173"><g><svg viewBox="0 0 278.2696 306.23319420334263" height="306.23319420334263" width="278.2696"><g id="textblocktransform"><svg viewBox="0 0 278.2696 306.23319420334263" height="306.23319420334263" width="278.2696" id="textblock"><g><svg viewBox="0 0 278.2696 278.2696" height="278.2696" width="278.2696"><g transform="matrix(1,0,0,1,73.54602628064397,73.54602628064397)"><svg viewBox="0 0 131.17754743871208 131.17754743871208" height="131.17754743871208" width="131.17754743871208"><g><circle r="66" cx="65.58877371935604" cy="65.58877371935604" fill="#000000" data-fill-palette-color="accent"></circle></g></svg></g><path d="M12.687 189.063l-3.797-9.81 3.689-1.428 0.987 1.723 25.286-0.793 2.65 6.847-19.229 16.446 0.434 1.948-3.689 1.427-3.793-9.801 3.689-1.428 0.986 1.584 2.547-1.893-3.261-8.427-3.147 0.342 0.336 1.836zM32.945 184.524l-8.814 0.548 2.222 5.741 6.954-5.629 0.809-0.644-0.04-0.102zM43.409 238.195v0c-1.7-1.728-2.9-3.506-3.598-5.333-0.708-1.828-0.868-3.618-0.478-5.372 0.39-1.753 1.359-3.391 2.907-4.914v0l9.849-9.69-1.593-2.5 2.833-2.787 8.831 8.976-2.833 2.787-2.487-1.647-9.849 9.69c-0.805 0.792-1.333 1.591-1.584 2.396-0.246 0.801-0.229 1.604 0.051 2.409 0.28 0.796 0.804 1.584 1.573 2.366v0c0.796 0.81 1.59 1.361 2.382 1.654 0.796 0.288 1.594 0.314 2.394 0.075 0.81-0.238 1.617-0.752 2.422-1.544v0l9.849-9.69-1.593-2.499 2.833-2.788 8.831 8.976-2.833 2.787-2.488-1.647-9.849 9.69c-1.524 1.5-3.175 2.421-4.953 2.763-1.783 0.347-3.582 0.161-5.398-0.558-1.816-0.71-3.556-1.91-5.219-3.6zM94.719 270.535l-11.725-4.753 1.486-3.665 2.959 0.522 6.871-16.95-4.034-1.635-1.299 2.752-4.745-1.923 3.114-7.681 24.215 9.815-3.114 7.681-4.791-1.942 0.994-2.875-4.062-1.647-6.871 16.95 2.488 1.685zM141.081 278.269v0c-1.946 0.011-3.734-0.337-5.366-1.044-1.631-0.701-3.051-1.692-4.26-2.974-1.203-1.281-2.135-2.787-2.796-4.517-0.661-1.73-0.997-3.61-1.009-5.642v0l-0.003-0.448c-0.012-2.019 0.303-3.893 0.944-5.624 0.641-1.73 1.552-3.243 2.733-4.539 1.188-1.295 2.59-2.306 4.206-3.033 1.616-0.733 3.397-1.105 5.343-1.116v0c1.906-0.011 3.678 0.341 5.316 1.055 1.644 0.708 3.085 1.702 4.321 2.983 1.236 1.281 2.201 2.783 2.895 4.506 0.687 1.723 1.037 3.593 1.049 5.612v0l0.002 0.449c0.012 2.032-0.316 3.917-0.983 5.654-0.674 1.737-1.618 3.254-2.833 4.549-1.221 1.295-2.646 2.303-4.276 3.023-1.63 0.727-3.391 1.096-5.283 1.106zM141.051 273.129v0c1.415-0.008 2.621-0.394 3.62-1.156 1.005-0.77 1.766-1.837 2.282-3.201 0.523-1.371 0.78-2.97 0.769-4.796v0l-0.003-0.488c-0.01-1.786-0.288-3.359-0.834-4.718-0.539-1.352-1.312-2.406-2.319-3.164-1.014-0.751-2.235-1.123-3.663-1.114v0c-1.507 0.009-2.737 0.388-3.689 1.137-0.959 0.756-1.663 1.809-2.113 3.16-0.457 1.357-0.68 2.949-0.67 4.775v0l0.003 0.489c0.011 1.826 0.256 3.425 0.735 4.797 0.473 1.365 1.199 2.424 2.18 3.175 0.974 0.745 2.208 1.113 3.702 1.104zM191.852 267.744v0c-2.022 0.863-3.908 1.29-5.66 1.279-1.746-0.013-3.313-0.503-4.701-1.47-1.388-0.967-2.552-2.46-3.492-4.477v0l-0.011-0.125 5.809-2.48c0.828 1.618 1.67 2.583 2.525 2.897 0.856 0.313 1.745 0.273 2.668-0.121v0c0.531-0.227 0.995-0.562 1.39-1.005 0.387-0.447 0.63-1.002 0.73-1.666 0.091-0.667-0.045-1.425-0.408-2.274v0l-5.812-13.613-3.769 0.915-1.553-3.637 12.414-5.3 1.561 3.655-2.451 1.718 5.812 13.614c0.743 1.741 1.043 3.382 0.9 4.924-0.135 1.545-0.703 2.929-1.705 4.15-0.993 1.226-2.409 2.231-4.247 3.016zM235.371 237.91v0c-1.375 1.377-2.892 2.387-4.549 3.031-1.653 0.649-3.36 0.943-5.12 0.883-1.756-0.065-3.478-0.48-5.164-1.245-1.686-0.765-3.248-1.865-4.686-3.301v0l-0.317-0.317c-1.428-1.427-2.523-2.981-3.284-4.662-0.761-1.681-1.178-3.397-1.249-5.148-0.067-1.756 0.219-3.461 0.857-5.115 0.633-1.658 1.637-3.175 3.012-4.551v0c1.347-1.348 2.854-2.345 4.521-2.989 1.667-0.653 3.39-0.959 5.17-0.918 1.78 0.041 3.522 0.43 5.227 1.167 1.7 0.741 3.264 1.825 4.693 3.252v0l0.317 0.317c1.438 1.436 2.53 3.007 3.277 4.711 0.743 1.709 1.138 3.451 1.186 5.226 0.043 1.78-0.261 3.499-0.913 5.156-0.647 1.663-1.64 3.163-2.978 4.503zM231.735 234.277v0c1-1.001 1.586-2.123 1.759-3.368 0.173-1.254-0.036-2.548-0.628-3.881-0.592-1.343-1.534-2.66-2.827-3.95v0l-0.345-0.345c-1.264-1.263-2.567-2.185-3.911-2.767-1.334-0.582-2.625-0.788-3.874-0.618-1.249 0.179-2.378 0.774-3.387 1.784v0c-1.065 1.066-1.673 2.201-1.823 3.403-0.15 1.212 0.09 2.456 0.72 3.733 0.63 1.286 1.591 2.575 2.883 3.866v0l0.345 0.345c1.292 1.291 2.591 2.255 3.897 2.893 1.296 0.638 2.557 0.879 3.782 0.724 1.216-0.156 2.352-0.762 3.409-1.819zM264.997 191.08l-5.26 13.142-3.672-1.47 0.498-2.933-17.59-7.041-1.654 2.471-3.69-1.477 1.081-2.7 3.646-9.11c1.315-3.286 2.946-5.609 4.892-6.969 1.946-1.36 4.112-1.562 6.499-0.607v0c1.233 0.494 2.22 1.228 2.959 2.204 0.74 0.976 1.118 2.175 1.135 3.598v0c0.639-0.953 1.364-1.647 2.174-2.081 0.807-0.443 1.657-0.664 2.551-0.663 0.897-0.006 1.792 0.17 2.686 0.527v0c2.559 1.024 4.149 2.655 4.769 4.892 0.617 2.229 0.276 4.967-1.024 8.217zM252.222 190.774l6.326 2.532 1.658-4.143c0.496-1.239 0.626-2.271 0.391-3.095-0.242-0.826-0.865-1.441-1.87-1.843v0c-0.752-0.301-1.423-0.43-2.012-0.387-0.596 0.041-1.114 0.262-1.554 0.666-0.447 0.401-0.833 1.008-1.159 1.821v0zM242.04 186.698l6.02 2.41 1.018-2.543c0.595-1.486 0.802-2.691 0.621-3.615-0.175-0.921-0.759-1.581-1.752-1.977v0c-1.085-0.434-2.014-0.409-2.787 0.075-0.77 0.493-1.435 1.439-1.995 2.839v0z" fill="#000000" data-fill-palette-color="primary"></path><path d="M31.857 103.798L28.126 113.484 24.482 112.081 24.92 110.168 5.922 94.001 8.525 87.243 33.467 87.978 34.425 86.266 38.069 87.67 34.345 97.337 30.701 95.934 31.037 94.12 27.929 93.82 24.724 102.139 27.245 103.964 28.213 102.394ZM14.053 93.706L20.864 99.137 23.044 93.475 14.237 92.976 13.215 92.913 13.176 93.016ZM58.54 62.261V62.261C56.87 63.962 55.142 65.178 53.355 65.908 51.563 66.634 49.799 66.82 48.063 66.465 46.331 66.115 44.7 65.188 43.169 63.685V63.685L33.451 54.146 31.015 55.761 28.214 53.012 36.909 44.154 39.71 46.903 38.133 49.376 47.852 58.915C48.648 59.697 49.444 60.204 50.24 60.436 51.035 60.668 51.824 60.637 52.606 60.343 53.392 60.054 54.162 59.526 54.915 58.758V58.758C55.697 57.962 56.225 57.168 56.499 56.377 56.778 55.59 56.792 54.803 56.541 54.016 56.289 53.23 55.765 52.446 54.969 51.664V51.664L45.251 42.125 42.822 43.733 40.021 40.983 48.716 32.125 51.517 34.875 49.934 37.355 59.652 46.894C61.154 48.369 62.089 49.98 62.458 51.728 62.831 53.481 62.681 55.26 62.007 57.065 61.334 58.861 60.178 60.592 58.54 62.261ZM102.222 33.994L90.667 38.688 89.197 35.07 91.645 33.42 84.859 16.715 80.891 18.327 81.858 21.16 77.188 23.057 74.114 15.489 97.981 5.794 101.055 13.362 96.321 15.285 95.057 12.573 91.052 14.2 97.838 30.904 100.752 30.376ZM140.811 28.52V28.52C138.899 28.509 137.141 28.147 135.538 27.434 133.935 26.721 132.546 25.726 131.371 24.451 130.203 23.176 129.302 21.683 128.667 19.973 128.033 18.263 127.721 16.405 127.733 14.399V14.399L127.735 13.961C127.747 11.968 128.079 10.124 128.733 8.428 129.387 6.725 130.302 5.242 131.478 3.981 132.661 2.719 134.055 1.737 135.659 1.036 137.264 0.335 139.022-0.011 140.935 0V0C142.814 0.011 144.559 0.376 146.168 1.096 147.778 1.816 149.184 2.814 150.385 4.089 151.593 5.364 152.528 6.857 153.188 8.568 153.849 10.272 154.174 12.12 154.163 14.112V14.112L154.16 14.55C154.149 16.556 153.803 18.41 153.122 20.113 152.442 21.816 151.494 23.298 150.278 24.56 149.068 25.821 147.655 26.799 146.037 27.494 144.419 28.189 142.677 28.531 140.811 28.52ZM140.84 23.46V23.46C142.235 23.468 143.429 23.099 144.423 22.354 145.423 21.61 146.186 20.568 146.712 19.23 147.238 17.884 147.506 16.312 147.516 14.512V14.512L147.519 14.034C147.529 12.268 147.276 10.716 146.759 9.378 146.242 8.033 145.49 6.983 144.505 6.227 143.513 5.471 142.314 5.089 140.906 5.081V5.081C139.425 5.072 138.207 5.434 137.254 6.165 136.306 6.897 135.6 7.929 135.134 9.261 134.668 10.594 134.43 12.159 134.42 13.959V13.959L134.417 14.437C134.407 16.237 134.63 17.816 135.087 19.173 135.544 20.524 136.249 21.574 137.201 22.323 138.153 23.072 139.366 23.451 140.84 23.46ZM183.334 37.345V37.345C181.338 36.491 179.747 35.439 178.563 34.189 177.378 32.938 176.661 31.491 176.411 29.845 176.155 28.198 176.423 26.347 177.213 24.295V24.295L177.297 24.201 183.022 26.648C182.433 28.346 182.319 29.609 182.681 30.435 183.039 31.253 183.673 31.856 184.583 32.245V32.245C185.108 32.47 185.662 32.569 186.243 32.543 186.831 32.52 187.391 32.316 187.925 31.93 188.464 31.546 188.914 30.933 189.274 30.091V30.091L195.008 16.681 191.792 14.624 193.327 11.033 205.555 16.261 204.012 19.87 201.117 19.293 195.384 32.703C194.65 34.419 193.686 35.754 192.49 36.709 191.297 37.658 189.926 38.195 188.378 38.32 186.823 38.443 185.142 38.118 183.334 37.345ZM220.109 62.656V62.656C218.759 61.302 217.766 59.807 217.13 58.171 216.494 56.536 216.208 54.852 216.272 53.119 216.341 51.391 216.753 49.697 217.507 48.036 218.261 46.375 219.349 44.836 220.769 43.421V43.421L221.08 43.111C222.491 41.705 224.026 40.63 225.685 39.886 227.349 39.138 229.042 38.73 230.766 38.663 232.494 38.6 234.175 38.885 235.808 39.517 237.441 40.149 238.933 41.142 240.283 42.497V42.497C241.609 43.828 242.59 45.316 243.226 46.961 243.862 48.606 244.157 50.304 244.112 52.055 244.071 53.812 243.683 55.53 242.948 57.209 242.217 58.885 241.146 60.425 239.734 61.832V61.832L239.424 62.141C238.003 63.557 236.452 64.629 234.769 65.359 233.087 66.088 231.37 66.473 229.618 66.512 227.871 66.556 226.179 66.255 224.541 65.609 222.903 64.962 221.426 63.978 220.109 62.656ZM223.693 59.084V59.084C224.678 60.072 225.785 60.652 227.015 60.823 228.25 60.999 229.525 60.797 230.841 60.217 232.161 59.632 233.459 58.705 234.734 57.434V57.434L235.073 57.097C236.324 55.85 237.237 54.57 237.812 53.256 238.392 51.937 238.599 50.663 238.432 49.432 238.26 48.197 237.678 47.08 236.684 46.083V46.083C235.639 45.034 234.52 44.433 233.327 44.281 232.139 44.133 230.911 44.368 229.642 44.986 228.373 45.604 227.101 46.548 225.826 47.818V47.818L225.488 48.155C224.213 49.426 223.26 50.704 222.628 51.989 222.001 53.27 221.762 54.512 221.91 55.714 222.058 56.917 222.653 58.04 223.693 59.084ZM245.688 102.027L240.525 89.061 244.153 87.617 245.783 90.067 263.136 83.157 262.635 80.258 266.282 78.806 267.347 81.481 270.925 90.467C272.217 93.713 272.629 96.479 272.161 98.767 271.692 101.055 270.276 102.67 267.913 103.611V103.611C266.704 104.092 265.504 104.238 264.313 104.047 263.119 103.851 262.036 103.249 261.064 102.242V102.242C261.243 103.357 261.193 104.346 260.915 105.207 260.642 106.066 260.184 106.803 259.542 107.416 258.906 108.026 258.147 108.507 257.265 108.859V108.859C254.741 109.863 252.498 109.777 250.535 108.6 248.581 107.427 246.966 105.236 245.688 102.027ZM255.03 93.579L248.783 96.067 250.408 100.148C250.897 101.376 251.508 102.201 252.241 102.624 252.971 103.056 253.832 103.074 254.825 102.678V102.678C255.566 102.383 256.133 102.022 256.527 101.593 256.925 101.156 257.146 100.643 257.19 100.053 257.234 99.464 257.096 98.768 256.777 97.966V97.966ZM265.072 89.581L259.13 91.947 260.129 94.455C260.711 95.917 261.381 96.919 262.14 97.46 262.89 97.998 263.756 98.071 264.737 97.681V97.681C265.811 97.253 266.456 96.603 266.673 95.731 266.893 94.864 266.728 93.74 266.177 92.358V92.358Z" fill="#000000" data-fill-palette-color="primary"></path><path d="M3.65 142.627c0-5.933 4.81-10.742 10.742-10.742 5.933 0 10.742 4.81 10.743 10.742 0 5.933-4.81 10.742-10.743 10.743-5.933 0-10.742-4.81-10.742-10.743zM253.135 142.627c0-5.933 4.81-10.742 10.742-10.742 5.933 0 10.742 4.81 10.743 10.742 0 5.933-4.81 10.742-10.743 10.743-5.933 0-10.742-4.81-10.742-10.743z" fill="#000000" data-fill-palette-color="primary"></path></svg></g><g transform="matrix(1,0,0,1,53.1494936,295.46666128000004)"><svg viewBox="0 0 171.97061280000003 10.76653292334263" height="10.76653292334263" width="171.97061280000003"><g transform="matrix(1,0,0,1,0,0)"><svg width="171.97061280000003" viewBox="-1.850000023841858 -34.20000076293945 555.7999877929688 34.79999923706055" height="10.76653292334263" data-palette-color="#ff908b"><path d="M24.35-1.2L24.35 0 9 0 9-1.2 13.35-1.65 13.35-14.35 1.95-31.75-1.85-32.2-1.85-33.4 13.15-33.4 13.15-32.2 9.3-31.75 18.8-16.95 26.95-31.05 23.2-32.2 23.2-33.4 33.35-33.4 33.35-32.2 29.55-31 20-14.75 20-1.65 24.35-1.2ZM53.45-3.05Q49.95 0.55 43.9 0.55 37.85 0.55 34.35-3.05 30.85-6.65 30.85-12.2 30.85-17.75 34.35-21.35 37.85-24.95 43.9-24.95 49.95-24.95 53.45-21.35 56.95-17.75 56.95-12.2 56.95-6.65 53.45-3.05ZM37.8-12.2Q37.8-0.65 43.9-0.65 50-0.65 50-12.2L50-12.2Q50-17.85 48.65-20.78 47.3-23.7 43.9-23.7 40.5-23.7 39.15-20.78 37.8-17.85 37.8-12.2L37.8-12.2ZM69.09-6.95L69.09-6.95Q69.09-4 69.82-2.65 70.55-1.3 72.75-1.3 74.95-1.3 77.09-4.05 79.25-6.8 79.25-8.8L79.25-8.8 79.25-22.8 75.3-23 75.3-24.15 85.65-24.8 85.65-1.6 89.7-1.4 89.7-0.25 79.45 0.35 79.7-4.65 79.2-4.65Q76.3 0.5 70.8 0.5L70.8 0.5Q62.8 0.5 62.8-7.2 62.8-14.9 63.35-22.8L63.35-22.8 59.65-23 59.65-24.15 69.59-24.7Q69.09-13.4 69.09-6.95ZM101.04-18.5Q101.89-21.2 104.17-23.1 106.44-25 108.32-25 110.19-25 110.84-24.08 111.49-23.15 111.49-22.55L111.49-22.55Q111.49-20.5 109.99-19.6L109.99-19.6Q108.99-20.4 107.02-20.4 105.04-20.4 103.09-19.18 101.14-17.95 101.14-16.5L101.14-16.5 101.14-1.45 105.64-1.15 105.64 0 91.69 0 91.69-1.15 94.99-1.4 94.99-22.75 90.94-22.95 90.94-24.1 101.14-24.65 100.84-18.5 101.04-18.5ZM145.09-15.65L135.34-15.65 135.34-1.65 139.69-1.2 139.69 0 124.39 0 124.39-1.2 128.74-1.65 128.74-31.75 124.39-32.3 124.39-33.45 149.89-33.45 149.89-26.3 148.29-26.3 146.39-31.6 135.34-31.75 135.34-17.45 145.09-17.45 146.64-21.15 148.09-21.15 148.09-11.85 146.59-11.85 145.09-15.65ZM161.78-6.95L161.78-6.95Q161.78-4 162.51-2.65 163.24-1.3 165.44-1.3 167.64-1.3 169.78-4.05 171.94-6.8 171.94-8.8L171.94-8.8 171.94-22.8 167.99-23 167.99-24.15 178.34-24.8 178.34-1.6 182.39-1.4 182.39-0.25 172.14 0.35 172.39-4.65 171.89-4.65Q168.99 0.5 163.49 0.5L163.49 0.5Q155.49 0.5 155.49-7.2 155.49-14.9 156.03-22.8L156.03-22.8 152.34-23 152.34-24.15 162.28-24.7Q161.78-13.4 161.78-6.95ZM193.53 0.55L193.53 0.55Q188.73 0.55 187.43-2.8L187.43-2.8Q186.88-4.25 186.88-6.45L186.88-6.45Q186.88-14.75 187.13-23.1L187.13-23.1 183.73-23.1 183.73-24.4 187.18-24.4 187.23-31.75 193.63-31.75 193.48-24.4 200.48-24.4 200.48-23.1 193.48-23.1 193.38-19.05Q193.23-10.95 193.23-4.2L193.23-4.2Q193.23-2.25 193.66-1.55 194.08-0.85 195.21-0.85 196.33-0.85 197.71-2.43 199.08-4 199.68-6.2L199.68-6.2Q200.68-6.2 200.68-5.5L200.68-5.5Q200.68-5.35 200.63-5.15L200.63-5.15Q199.83-2.55 197.91-1 195.98 0.55 193.53 0.55ZM211.58-6.95L211.58-6.95Q211.58-4 212.31-2.65 213.03-1.3 215.23-1.3 217.43-1.3 219.58-4.05 221.73-6.8 221.73-8.8L221.73-8.8 221.73-22.8 217.78-23 217.78-24.15 228.13-24.8 228.13-1.6 232.18-1.4 232.18-0.25 221.93 0.35 222.18-4.65 221.68-4.65Q218.78 0.5 213.28 0.5L213.28 0.5Q205.28 0.5 205.28-7.2 205.28-14.9 205.83-22.8L205.83-22.8 202.13-23 202.13-24.15 212.08-24.7Q211.58-13.4 211.58-6.95ZM243.53-18.5Q244.38-21.2 246.65-23.1 248.93-25 250.8-25 252.68-25 253.33-24.08 253.98-23.15 253.98-22.55L253.98-22.55Q253.98-20.5 252.48-19.6L252.48-19.6Q251.48-20.4 249.5-20.4 247.53-20.4 245.58-19.18 243.63-17.95 243.63-16.5L243.63-16.5 243.63-1.45 248.13-1.15 248.13 0 234.18 0 234.18-1.15 237.48-1.4 237.48-22.75 233.43-22.95 233.43-24.1 243.63-24.65 243.33-18.5 243.53-18.5ZM272.58-17.45L272.58-17.45Q272.58-23.55 268.33-23.55L268.33-23.55Q263.88-23.55 262.93-15.75L262.93-15.75 272.48-15.75Q272.58-16.75 272.58-17.45ZM267.88 0.55L267.88 0.55Q262.53 0.55 259.2-2.95 255.88-6.45 255.88-12.2 255.88-17.95 259.35-21.45 262.83-24.95 268.18-24.95 273.53-24.95 276.18-22.68 278.83-20.4 278.83-16.35L278.83-16.35Q278.83-15.2 278.63-13.95L278.63-13.95 262.78-13.95 262.78-12.2Q262.78-6.6 264.18-3.73 265.58-0.85 268.4-0.85 271.23-0.85 273.55-2.02 275.88-3.2 277.18-5.35L277.18-5.35Q278.28-5 278.28-4.3L278.28-4.3Q278.28-3.05 275.93-1.4L275.93-1.4Q274.78-0.6 272.65-0.03 270.53 0.55 267.88 0.55ZM296.62-1.7L296.62-1.7Q294.52-3.05 294.52-5.15L294.52-5.15Q294.52-8.05 299.12-8.75L299.12-8.75Q299.92-4.1 302.52-2.3L302.52-2.3Q304.82-0.7 307.4-0.7 309.97-0.7 311.85-2.27 313.72-3.85 313.72-7.45L313.72-7.45Q313.72-10.15 311.8-11.73 309.87-13.3 306.92-14.5 303.97-15.7 302.92-16.18 301.87-16.65 300.25-17.6 298.62-18.55 297.82-19.4L297.82-19.4Q295.82-21.7 295.82-24.7L295.82-24.7Q295.82-29.4 299.32-31.8 302.82-34.2 309.07-34.2L309.07-34.2Q312.62-34.2 317.32-33.4L317.32-33.4 317.32-26 315.67-26 313.67-31.9Q311.17-32.7 308.6-32.7 306.02-32.7 304.12-31.08 302.22-29.45 302.22-26.25L302.22-26.25Q302.22-22.6 305.52-20.8L305.52-20.8Q307.17-19.95 309.42-19.1 311.67-18.25 312.67-17.82 313.67-17.4 315.32-16.48 316.97-15.55 317.77-14.65 318.57-13.75 319.22-12.28 319.87-10.8 319.87-9.05L319.87-9.05Q319.87-4.8 316.27-2.1 312.67 0.6 306.45 0.6 300.22 0.6 296.62-1.7ZM332.22 0.55L332.22 0.55Q327.42 0.55 326.12-2.8L326.12-2.8Q325.57-4.25 325.57-6.45L325.57-6.45Q325.57-14.75 325.82-23.1L325.82-23.1 322.42-23.1 322.42-24.4 325.87-24.4 325.92-31.75 332.32-31.75 332.17-24.4 339.17-24.4 339.17-23.1 332.17-23.1 332.07-19.05Q331.92-10.95 331.92-4.2L331.92-4.2Q331.92-2.25 332.34-1.55 332.77-0.85 333.89-0.85 335.02-0.85 336.39-2.43 337.77-4 338.37-6.2L338.37-6.2Q339.37-6.2 339.37-5.5L339.37-5.5Q339.37-5.35 339.32-5.15L339.32-5.15Q338.52-2.55 336.59-1 334.67 0.55 332.22 0.55ZM356.07-7.4L356.07-11.7Q350.27-11.7 348.77-8.65L348.77-8.65Q348.12-7.35 348.12-5.4L348.12-5.4Q348.12-2.05 350.42-1.5L350.42-1.5Q350.77-1.4 351.17-1.4L351.17-1.4Q352.77-1.4 354.37-3.08 355.97-4.75 356.07-7.4L356.07-7.4ZM348.07-16.6L348.07-16.6Q346.97-15.85 345.77-15.85 344.57-15.85 343.72-16.65 342.87-17.45 342.87-19.03 342.87-20.6 343.82-21.85 344.77-23.1 346.27-23.7L346.27-23.7Q349.22-24.95 351.87-24.95L351.87-24.95Q357.77-24.95 359.92-22.88 362.07-20.8 362.07-16.5L362.07-16.5 362.07-1.45 366.27-1.15 366.27-0.05 356.72 0.55 356.27-3.65Q353.92 0.6 348.17 0.6L348.17 0.6Q345.57 0.6 343.69-0.98 341.82-2.55 341.82-5.4L341.82-5.4Q341.87-9.2 345.62-11.13 349.37-13.05 356.07-13.05L356.07-13.05 356.07-17.35Q356.07-20.4 355.22-22.05 354.37-23.7 352.07-23.7 349.77-23.7 348.62-21.8L348.62-21.8Q347.87-20.55 347.87-19.15 347.87-17.75 348.07-16.6ZM376.96-18.5Q377.81-21.2 380.09-23.1 382.36-25 384.24-25 386.11-25 386.76-24.08 387.41-23.15 387.41-22.55L387.41-22.55Q387.41-20.5 385.91-19.6L385.91-19.6Q384.91-20.4 382.94-20.4 380.96-20.4 379.01-19.18 377.06-17.95 377.06-16.5L377.06-16.5 377.06-1.45 381.56-1.15 381.56 0 367.61 0 367.61-1.15 370.91-1.4 370.91-22.75 366.86-22.95 366.86-24.1 377.06-24.65 376.76-18.5 376.96-18.5ZM398.41 0.55L398.41 0.55Q393.61 0.55 392.31-2.8L392.31-2.8Q391.76-4.25 391.76-6.45L391.76-6.45Q391.76-14.75 392.01-23.1L392.01-23.1 388.61-23.1 388.61-24.4 392.06-24.4 392.11-31.75 398.51-31.75 398.36-24.4 405.36-24.4 405.36-23.1 398.36-23.1 398.26-19.05Q398.11-10.95 398.11-4.2L398.11-4.2Q398.11-2.25 398.54-1.55 398.96-0.85 400.09-0.85 401.21-0.85 402.59-2.43 403.96-4 404.56-6.2L404.56-6.2Q405.56-6.2 405.56-5.5L405.56-5.5Q405.56-5.35 405.51-5.15L405.51-5.15Q404.71-2.55 402.79-1 400.86 0.55 398.41 0.55ZM417.51-0.7L417.51-0.7Q419.26-0.7 420.41-1.83 421.56-2.95 421.56-5.5L421.56-5.5Q421.56-7.55 419.86-8.6L419.86-8.6Q418.56-9.4 416.53-10.18 414.51-10.95 413.43-11.5 412.36-12.05 411.06-12.95L411.06-12.95Q408.51-14.75 408.51-17.85 408.51-20.95 411.08-22.95 413.66-24.95 418.61-24.95L418.61-24.95Q421.71-24.95 423.86-23.63 426.01-22.3 426.01-20.3 426.01-18.3 424.31-17.4L424.31-17.4Q423.51-17 422.71-17L422.71-17 420.91-17.55Q421.21-19.1 421.21-20.38 421.21-21.65 420.41-22.68 419.61-23.7 418.01-23.7L418.01-23.7Q414.11-23.7 414.11-19L414.11-19Q414.11-16.85 415.76-15.8L415.76-15.8Q417.01-14.95 418.96-14.28 420.91-13.6 422.03-13.1 423.16-12.6 424.46-11.7L424.46-11.7Q427.06-10 427.06-6.68 427.06-3.35 424.31-1.4 421.56 0.55 417.06 0.55L417.06 0.55Q412.06 0.55 409.66-1.1L409.66-1.1Q408.26-2.1 408.26-3.55 408.26-5 409.23-5.9 410.21-6.8 411.96-6.85L411.96-6.85Q412.31-0.7 417.51-0.7ZM480.35-1.2L480.35 0 465.05 0 465.05-1.2 469.4-1.65 469.4-16.5 453.6-16.5 453.6-1.65 457.95-1.2 457.95 0 442.6 0 442.6-1.2 446.95-1.65 446.95-31.75 442.6-32.2 442.6-33.4 457.95-33.4 457.95-32.2 453.6-31.75 453.6-18.3 469.4-18.3 469.4-31.75 465.05-32.2 465.05-33.4 480.35-33.4 480.35-32.2 476-31.75 476-1.65 480.35-1.2ZM499.6-17.45L499.6-17.45Q499.6-23.55 495.35-23.55L495.35-23.55Q490.9-23.55 489.95-15.75L489.95-15.75 499.5-15.75Q499.6-16.75 499.6-17.45ZM494.9 0.55L494.9 0.55Q489.55 0.55 486.23-2.95 482.9-6.45 482.9-12.2 482.9-17.95 486.38-21.45 489.85-24.95 495.2-24.95 500.55-24.95 503.2-22.68 505.85-20.4 505.85-16.35L505.85-16.35Q505.85-15.2 505.65-13.95L505.65-13.95 489.8-13.95 489.8-12.2Q489.8-6.6 491.2-3.73 492.6-0.85 495.43-0.85 498.25-0.85 500.58-2.02 502.9-3.2 504.2-5.35L504.2-5.35Q505.3-5 505.3-4.3L505.3-4.3Q505.3-3.05 502.95-1.4L502.95-1.4Q501.8-0.6 499.68-0.03 497.55 0.55 494.9 0.55ZM518.65-18.5Q519.5-21.2 521.77-23.1 524.05-25 525.92-25 527.8-25 528.45-24.08 529.1-23.15 529.1-22.55L529.1-22.55Q529.1-20.5 527.6-19.6L527.6-19.6Q526.6-20.4 524.62-20.4 522.65-20.4 520.7-19.18 518.75-17.95 518.75-16.5L518.75-16.5 518.75-1.45 523.25-1.15 523.25 0 509.3 0 509.3-1.15 512.6-1.4 512.6-22.75 508.55-22.95 508.55-24.1 518.75-24.65 518.45-18.5 518.65-18.5ZM547.7-17.45L547.7-17.45Q547.7-23.55 543.45-23.55L543.45-23.55Q539-23.55 538.05-15.75L538.05-15.75 547.6-15.75Q547.7-16.75 547.7-17.45ZM543 0.55L543 0.55Q537.65 0.55 534.32-2.95 531-6.45 531-12.2 531-17.95 534.47-21.45 537.95-24.95 543.3-24.95 548.65-24.95 551.3-22.68 553.95-20.4 553.95-16.35L553.95-16.35Q553.95-15.2 553.75-13.95L553.75-13.95 537.9-13.95 537.9-12.2Q537.9-6.6 539.3-3.73 540.7-0.85 543.52-0.85 546.35-0.85 548.67-2.02 551-3.2 552.3-5.35L552.3-5.35Q553.4-5 553.4-4.3L553.4-4.3Q553.4-3.05 551.05-1.4L551.05-1.4Q549.9-0.6 547.77-0.03 545.65 0.55 543 0.55Z" opacity="1" transform="matrix(1,0,0,1,0,0)" fill="#000000" class="undefined-text-1" data-fill-palette-color="secondary" id="text-1"></path></svg></g></svg></g></svg></g></svg></g><g></g></svg></g><defs></defs></svg><rect width="254.43188222196173" height="280" fill="none" stroke="none" visibility="hidden"></rect></g></svg></g></svg>